{"title":"Neram (2013) Malayalam BlurayRip 1080p x264 5.1-Splash(4GB)","uid":9120090,"size":3682939471,"categoryP":"video","categoryS":"hd___movies","magnet":"?xt=urn:btih:4872640e6da77dc543807335150a5be75d551ece&amp;dn=Neram+%282013%29+Malayalam+BlurayRip+1080p+x264+5.1-Splash%284GB%29&amp;tr=udp%3A%2F%2Ftracker.openbittorrent.com%3A80&amp;tr=udp%3A%2F%2Fopen.demonii.com%3A1337&amp;tr=udp%3A%2F%2Ftracker.coppersurfer.tk%3A6969&amp;tr=udp%3A%2F%2Fexodus.desync.com%3A6969","seeders":1,"leechers":1,"uploader":"Prabhu99","files":2,"time":1383111551,"description":" &lt;a href=&quot;http://i.imgur.com/4EQtcxx.jpg&quot; rel=&quot;nofollow&quot; target=&quot;_NEW&quot;&gt;http://i.imgur.com/4EQtcxx.jpg&lt;/a&gt;\n\n\nDirected by\tAlphonse Putharen\nProduced by\tKoral Viswanathan\nWritten by\tAlphonse Putharen\nStarring\tNivin Pauly\nNazriya Nazim\nBobby Simha\nMusic by\tRajesh Murugesan\n\nSynopsis\nThe lead character Vettri (Nivin) is a nomad in search of a job after being fired from a bankrupt multinational. He borrows some money from a local goon Vattiraja (Simhaa) for some family commitments and he is not able to repay it back on time. To pile up his troubles, his girlfriend Veni (Nazriya) runs away from home as her father does not acknowledge their love. To add fuel to the flare, his sister's husband demands the pending dowry to start over his new found business. All of these need to happen by 5pm in a single day and of course with little time left. If you think that's the end to all of Vettri's woes, no! There are plenty more which keep mounting his head, so will he successfully repay Vattiraja to escape his wrath? What happens to his love? How does he escape the police?\n\nMedia Info\nFormat : Matroska\nFormat version : Version 2\nFile size : 3.43 GiB\nDuration : 1h 48mn\nOverall bit rate mode : Variable\nOverall bit rate : 4 538 Kbps\nVideo\nID : 1\nFormat : AVC\nFormat/Info : Advanced Video Codec\nFormat profile : &lt;a class=&quot;__cf_email__&quot; href=&quot;/cdn-cgi/l/email-protection&quot; data-cfemail=&quot;a5edccc2cde5e9918b94&quot;&gt;[email&amp;#160;protected]&lt;/a&gt;&lt;script cf-hash='f9e31' type=&quot;text/javascript&quot;&gt;\n/* &lt;![CDATA[ */!function(){try{var t=&quot;currentScript&quot;in document?document.currentScript:function(){for(var t=document.getElementsByTagName(&quot;script&quot;),e=t.length;e--;)if(t[e].getAttribute(&quot;cf-hash&quot;))return t[e]}();if(t&amp;&amp;t.previousSibling){var e,r,n,i,c=t.previousSibling,a=c.getAttribute(&quot;data-cfemail&quot;);if(a){for(e=&quot;&quot;,r=parseInt(a.substr(0,2),16),n=2;a.length-n;n+=2)i=parseInt(a.substr(n,2),16)^r,e+=String.fromCharCode(i);e=document.createTextNode(e),c.parentNode.replaceChild(e,c)}}}catch(u){}}();/* ]]&gt; */&lt;/script&gt;\nFormat settings, CABAC : Yes\nFormat settings, ReFrames : 2 frames\nCodec ID : V_MPEG4/ISO/AVC\nDuration : 1h 48mn\nBit rate mode : Variable\nBit rate : 3 552 Kbps\nMaximum bit rate : 5 635 Kbps\nWidth : 1 920 pixels\nHeight : 816 pixels\nDisplay aspect ratio : 2.35:1\nFrame rate mode : Constant\nFrame rate : 23.976 fps\nColor space : YUV\nChroma subsampling : 4:2:0\nBit depth : 8 bits\nScan type : Progressive\nBits/(Pixel*Frame) : 0.095\nAudio #1\nID : 2\nFormat : AC-3\nFormat/Info : Audio Coding 3\nMode extension : CM (complete main)\nFormat settings, Endianness : Big\nCodec ID : A_AC3\nDuration : 1h 48mn\nBit rate mode : Constant\nBit rate : 448 Kbps\nChannel(s) : 6 channels\nChannel positions : Front: L C R, Side: L R, LFE\nSampling rate : 48.0 KHz\nBit depth : 16 bits\nCompression mode : Lossy\nStream size : 347 MiB (10%)\nLanguage : English\nDefault : Yes\nForced : No\n\nAudio #2\nID : 3\nFormat : AC-3\nFormat/Info : Audio Coding 3\nMode extension : CM (complete main)\nFormat settings, Endianness : Big\nCodec ID : A_AC3\nDuration : 1h 48mn\nBit rate mode : Constant\nBit rate : 448 Kbps\nChannel(s) : 6 channels\nChannel positions : Front: L C R, Side: L R, LFE\nSampling rate : 48.0 KHz\nBit depth : 16 bits\nCompression mode : Lossy\nStream size : 347 MiB (10%)\nLanguage : English\nDefault : No\nForced : No\n\n\n\nSCREENSHOT\n\n &lt;a href=&quot;\nhttp://i.imgur.com/MQ8Wb5D.jpg&quot; rel=&quot;nofollow&quot; target=&quot;_NEW&quot;&gt;\nhttp://i.imgur.com/MQ8Wb5D.jpg&lt;/a&gt; &lt;a href=&quot;\nhttp://i.imgur.com/zQfRUhK.jpg&quot; rel=&quot;nofollow&quot; target=&quot;_NEW&quot;&gt;\nhttp://i.imgur.com/zQfRUhK.jpg&lt;/a&gt; &lt;a href=&quot;\nhttp://i.imgur.com/q7S3Smv.jpg&quot; rel=&quot;nofollow&quot; target=&quot;_NEW&quot;&gt;\nhttp://i.imgur.com/q7S3Smv.jpg&lt;/a&gt; &lt;a href=&quot;\nhttp://i.imgur.com/y3ls0Kx.jpg&quot; rel=&quot;nofollow&quot; target=&quot;_NEW&quot;&gt;\nhttp://i.imgur.com/y3ls0Kx.jpg&lt;/a&gt; &lt;a href=&quot;\nhttp://i.imgur.com/7506Ptg.jpg&quot; rel=&quot;nofollow&quot; target=&quot;_NEW&quot;&gt;\nhttp://i.imgur.com/7506Ptg.jpg&lt;/a&gt;\n\n\n\n\n","torrent":{"xt":"urn:btih:4872640e6da77dc543807335150a5be75d551ece","amp;dn":"Neram+%282013%29+Malayalam+BlurayRip+1080p+x264+5.1-Splash%284GB%29","amp;tr":["udp%3A%2F%2Ftracker.openbittorrent.com%3A80","udp%3A%2F%2Fopen.demonii.com%3A1337","udp%3A%2F%2Ftracker.coppersurfer.tk%3A6969","udp%3A%2F%2Fexodus.desync.com%3A6969"],"infoHash":"4872640e6da77dc543807335150a5be75d551ece","infoHashBuffer":{"type":"Buffer","data":[72,114,100,14,109,167,125,197,67,128,115,53,21,10,91,231,93,85,30,206]},"announce":[],"urlList":[]}}